<svg xmlns="http://www.w3.org/2000/svg" width="125" height="125" viewBox="0 0 125 125" fill="none"><circle cx="62.5" cy="62.5" r="62.5" fill="#FF7369"></circle><path d="M49.9529 72.194L51.9129 66.244H53.9989L51.1289 74H48.7489L45.8929 66.244H47.9929L49.9529 72.194ZM56.0938 65.32C55.7485 65.32 55.4591 65.2127 55.2258 64.998C55.0018 64.774 54.8898 64.4987 54.8898 64.172C54.8898 63.8453 55.0018 63.5747 55.2258 63.36C55.4591 63.136 55.7485 63.024 56.0938 63.024C56.4391 63.024 56.7238 63.136 56.9478 63.36C57.1811 63.5747 57.2978 63.8453 57.2978 64.172C57.2978 64.4987 57.1811 64.774 56.9478 64.998C56.7238 65.2127 56.4391 65.32 56.0938 65.32ZM57.0598 66.244V74H55.0998V66.244H57.0598ZM61.9643 74.126C61.3296 74.126 60.7603 74.014 60.2563 73.79C59.7523 73.5567 59.3509 73.244 59.0523 72.852C58.7629 72.46 58.6043 72.026 58.5763 71.55H60.5503C60.5876 71.8487 60.7323 72.096 60.9843 72.292C61.2456 72.488 61.5676 72.586 61.9503 72.586C62.3236 72.586 62.6129 72.5113 62.8183 72.362C63.0329 72.2127 63.1403 72.0213 63.1403 71.788C63.1403 71.536 63.0096 71.3493 62.7483 71.228C62.4963 71.0973 62.0903 70.9573 61.5303 70.808C60.9516 70.668 60.4756 70.5233 60.1023 70.374C59.7383 70.2247 59.4209 69.996 59.1503 69.688C58.8889 69.38 58.7583 68.9647 58.7583 68.442C58.7583 68.0127 58.8796 67.6207 59.1223 67.266C59.3743 66.9113 59.7289 66.6313 60.1863 66.426C60.6529 66.2207 61.1989 66.118 61.8243 66.118C62.7483 66.118 63.4856 66.3513 64.0363 66.818C64.5869 67.2753 64.8903 67.896 64.9463 68.68H63.0703C63.0423 68.372 62.9116 68.1293 62.6783 67.952C62.4543 67.7653 62.1509 67.672 61.7683 67.672C61.4136 67.672 61.1383 67.7373 60.9423 67.868C60.7556 67.9987 60.6623 68.1807 60.6623 68.414C60.6623 68.6753 60.7929 68.876 61.0543 69.016C61.3156 69.1467 61.7216 69.282 62.2723 69.422C62.8323 69.562 63.2943 69.7067 63.6583 69.856C64.0223 70.0053 64.3349 70.2387 64.5963 70.556C64.8669 70.864 65.0069 71.2747 65.0163 71.788C65.0163 72.236 64.8903 72.6373 64.6383 72.992C64.3956 73.3467 64.0409 73.6267 63.5743 73.832C63.1169 74.028 62.5803 74.126 61.9643 74.126ZM70.0692 74.126C69.3225 74.126 68.6505 73.9627 68.0532 73.636C67.4558 73.3 66.9845 72.8287 66.6392 72.222C66.3032 71.6153 66.1352 70.9153 66.1352 70.122C66.1352 69.3287 66.3078 68.6287 66.6532 68.022C67.0078 67.4153 67.4885 66.9487 68.0952 66.622C68.7018 66.286 69.3785 66.118 70.1252 66.118C70.8718 66.118 71.5485 66.286 72.1552 66.622C72.7618 66.9487 73.2378 67.4153 73.5832 68.022C73.9378 68.6287 74.1152 69.3287 74.1152 70.122C74.1152 70.9153 73.9332 71.6153 73.5692 72.222C73.2145 72.8287 72.7292 73.3 72.1132 73.636C71.5065 73.9627 70.8252 74.126 70.0692 74.126ZM70.0692 72.418C70.4238 72.418 70.7552 72.334 71.0632 72.166C71.3805 71.9887 71.6325 71.7273 71.8192 71.382C72.0058 71.0367 72.0992 70.6167 72.0992 70.122C72.0992 69.3847 71.9032 68.82 71.5112 68.428C71.1285 68.0267 70.6572 67.826 70.0972 67.826C69.5372 67.826 69.0658 68.0267 68.6832 68.428C68.3098 68.82 68.1232 69.3847 68.1232 70.122C68.1232 70.8593 68.3052 71.4287 68.6692 71.83C69.0425 72.222 69.5092 72.418 70.0692 72.418ZM77.5129 67.448C77.7649 67.0373 78.0916 66.7153 78.4929 66.482C78.9036 66.2487 79.3702 66.132 79.8929 66.132V68.19H79.3749C78.7589 68.19 78.2922 68.3347 77.9749 68.624C77.6669 68.9133 77.5129 69.4173 77.5129 70.136V74H75.5529V66.244H77.5129V67.448ZM36.5246 81.364C36.7766 81.0093 37.122 80.7153 37.5606 80.482C38.0086 80.2393 38.5173 80.118 39.0866 80.118C39.7493 80.118 40.3466 80.2813 40.8786 80.608C41.42 80.9347 41.8446 81.4013 42.1526 82.008C42.47 82.6053 42.6286 83.3007 42.6286 84.094C42.6286 84.8873 42.47 85.592 42.1526 86.208C41.8446 86.8147 41.42 87.286 40.8786 87.622C40.3466 87.958 39.7493 88.126 39.0866 88.126C38.5173 88.126 38.0133 88.0093 37.5746 87.776C37.1453 87.5427 36.7953 87.2487 36.5246 86.894V91.696H34.5646V80.244H36.5246V81.364ZM40.6266 84.094C40.6266 83.6273 40.5286 83.226 40.3326 82.89C40.146 82.5447 39.894 82.2833 39.5766 82.106C39.2686 81.9287 38.9326 81.84 38.5686 81.84C38.214 81.84 37.878 81.9333 37.5606 82.12C37.2526 82.2973 37.0006 82.5587 36.8046 82.904C36.618 83.2493 36.5246 83.6553 36.5246 84.122C36.5246 84.5887 36.618 84.9947 36.8046 85.34C37.0006 85.6853 37.2526 85.9513 37.5606 86.138C37.878 86.3153 38.214 86.404 38.5686 86.404C38.9326 86.404 39.2686 86.3107 39.5766 86.124C39.894 85.9373 40.146 85.6713 40.3326 85.326C40.5286 84.9807 40.6266 84.57 40.6266 84.094ZM51.2629 83.954C51.2629 84.234 51.2442 84.486 51.2069 84.71H45.5369C45.5836 85.27 45.7796 85.7087 46.1249 86.026C46.4702 86.3433 46.8949 86.502 47.3989 86.502C48.1269 86.502 48.6449 86.1893 48.9529 85.564H51.0669C50.8429 86.3107 50.4136 86.9267 49.7789 87.412C49.1442 87.888 48.3649 88.126 47.4409 88.126C46.6942 88.126 46.0222 87.9627 45.4249 87.636C44.8369 87.3 44.3749 86.8287 44.0389 86.222C43.7122 85.6153 43.5489 84.9153 43.5489 84.122C43.5489 83.3193 43.7122 82.6147 44.0389 82.008C44.3656 81.4013 44.8229 80.9347 45.4109 80.608C45.9989 80.2813 46.6756 80.118 47.4409 80.118C48.1782 80.118 48.8362 80.2767 49.4149 80.594C50.0029 80.9113 50.4556 81.364 50.7729 81.952C51.0996 82.5307 51.2629 83.198 51.2629 83.954ZM49.2329 83.394C49.2236 82.89 49.0416 82.4887 48.6869 82.19C48.3322 81.882 47.8982 81.728 47.3849 81.728C46.8996 81.728 46.4889 81.8773 46.1529 82.176C45.8262 82.4653 45.6256 82.8713 45.5509 83.394H49.2329ZM55.6615 88.126C55.0269 88.126 54.4575 88.014 53.9535 87.79C53.4495 87.5567 53.0482 87.244 52.7495 86.852C52.4602 86.46 52.3015 86.026 52.2735 85.55H54.2475C54.2849 85.8487 54.4295 86.096 54.6815 86.292C54.9429 86.488 55.2649 86.586 55.6475 86.586C56.0209 86.586 56.3102 86.5113 56.5155 86.362C56.7302 86.2127 56.8375 86.0213 56.8375 85.788C56.8375 85.536 56.7069 85.3493 56.4455 85.228C56.1935 85.0973 55.7875 84.9573 55.2275 84.808C54.6489 84.668 54.1729 84.5233 53.7995 84.374C53.4355 84.2247 53.1182 83.996 52.8475 83.688C52.5862 83.38 52.4555 82.9647 52.4555 82.442C52.4555 82.0127 52.5769 81.6207 52.8195 81.266C53.0715 80.9113 53.4262 80.6313 53.8835 80.426C54.3502 80.2207 54.8962 80.118 55.5215 80.118C56.4455 80.118 57.1829 80.3513 57.7335 80.818C58.2842 81.2753 58.5875 81.896 58.6435 82.68H56.7675C56.7395 82.372 56.6089 82.1293 56.3755 81.952C56.1515 81.7653 55.8482 81.672 55.4655 81.672C55.1109 81.672 54.8355 81.7373 54.6395 81.868C54.4529 81.9987 54.3595 82.1807 54.3595 82.414C54.3595 82.6753 54.4902 82.876 54.7515 83.016C55.0129 83.1467 55.4189 83.282 55.9695 83.422C56.5295 83.562 56.9915 83.7067 57.3555 83.856C57.7195 84.0053 58.0322 84.2387 58.2935 84.556C58.5642 84.864 58.7042 85.2747 58.7135 85.788C58.7135 86.236 58.5875 86.6373 58.3355 86.992C58.0929 87.3467 57.7382 87.6267 57.2715 87.832C56.8142 88.028 56.2775 88.126 55.6615 88.126ZM59.8184 84.108C59.8184 83.3333 59.9771 82.6473 60.2944 82.05C60.6211 81.4433 61.0598 80.972 61.6104 80.636C62.1611 80.3 62.7678 80.132 63.4304 80.132C63.9811 80.132 64.4664 80.2393 64.8864 80.454C65.3158 80.6593 65.6611 80.9253 65.9224 81.252V80.244H67.8964V91.696H65.9224V86.936C65.6611 87.272 65.3111 87.552 64.8724 87.776C64.4338 88 63.9391 88.112 63.3884 88.112C62.7351 88.112 62.1331 87.944 61.5824 87.608C61.0411 87.2627 60.6118 86.7867 60.2944 86.18C59.9771 85.5733 59.8184 84.8827 59.8184 84.108ZM65.9224 84.122C65.9224 83.646 65.8244 83.2353 65.6284 82.89C65.4324 82.5447 65.1758 82.2833 64.8584 82.106C64.5504 81.9287 64.2191 81.84 63.8644 81.84C63.5191 81.84 63.1878 81.9287 62.8704 82.106C62.5624 82.2833 62.3104 82.5447 62.1144 82.89C61.9184 83.226 61.8204 83.632 61.8204 84.108C61.8204 84.584 61.9184 84.9993 62.1144 85.354C62.3104 85.6993 62.5624 85.9607 62.8704 86.138C63.1878 86.3153 63.5191 86.404 63.8644 86.404C64.2191 86.404 64.5504 86.3153 64.8584 86.138C65.1758 85.9607 65.4324 85.6993 65.6284 85.354C65.8244 85.0087 65.9224 84.598 65.9224 84.122ZM77.1327 80.244V88H75.1587V87.02C74.9067 87.356 74.5754 87.622 74.1647 87.818C73.7634 88.0047 73.3247 88.098 72.8487 88.098C72.2421 88.098 71.7054 87.972 71.2387 87.72C70.7721 87.4587 70.4034 87.0807 70.1327 86.586C69.8714 86.082 69.7407 85.4847 69.7407 84.794V80.244H71.7007V84.514C71.7007 85.13 71.8547 85.606 72.1627 85.942C72.4707 86.2687 72.8907 86.432 73.4227 86.432C73.9641 86.432 74.3887 86.2687 74.6967 85.942C75.0047 85.606 75.1587 85.13 75.1587 84.514V80.244H77.1327ZM86.2766 83.954C86.2766 84.234 86.2579 84.486 86.2206 84.71H80.5506C80.5973 85.27 80.7933 85.7087 81.1386 86.026C81.4839 86.3433 81.9086 86.502 82.4126 86.502C83.1406 86.502 83.6586 86.1893 83.9666 85.564H86.0806C85.8566 86.3107 85.4273 86.9267 84.7926 87.412C84.1579 87.888 83.3786 88.126 82.4546 88.126C81.7079 88.126 81.0359 87.9627 80.4386 87.636C79.8506 87.3 79.3886 86.8287 79.0526 86.222C78.7259 85.6153 78.5626 84.9153 78.5626 84.122C78.5626 83.3193 78.7259 82.6147 79.0526 82.008C79.3793 81.4013 79.8366 80.9347 80.4246 80.608C81.0126 80.2813 81.6893 80.118 82.4546 80.118C83.1919 80.118 83.8499 80.2767 84.4286 80.594C85.0166 80.9113 85.4693 81.364 85.7866 81.952C86.1133 82.5307 86.2766 83.198 86.2766 83.954ZM84.2466 83.394C84.2373 82.89 84.0553 82.4887 83.7006 82.19C83.3459 81.882 82.9119 81.728 82.3986 81.728C81.9133 81.728 81.5026 81.8773 81.1666 82.176C80.8399 82.4653 80.6393 82.8713 80.5646 83.394H84.2466ZM89.6672 81.448C89.9192 81.0373 90.2459 80.7153 90.6472 80.482C91.0579 80.2487 91.5245 80.132 92.0472 80.132V82.19H91.5292C90.9132 82.19 90.4465 82.3347 90.1292 82.624C89.8212 82.9133 89.6672 83.4173 89.6672 84.136V88H87.7072V80.244H89.6672V81.448Z" fill="#0F3063"></path><path d="M28 46.8271C29.3659 45.4611 31.5817 45.4611 32.9446 46.8271C34.3105 48.193 36.5232 48.193 37.8891 46.8271C39.252 45.4611 41.4677 45.4611 42.8337 46.8271C44.1965 48.193 46.4123 48.193 47.7782 46.8271C49.1411 45.4611 51.3568 45.4611 52.7228 46.8271L51.2641 48.2826C50.7233 47.7418 49.7777 47.7418 49.2369 48.2826C48.1861 49.3333 46.7893 49.9112 45.3059 49.9112C43.8195 49.9112 42.4257 49.3302 41.375 48.2826C40.8342 47.7418 39.8886 47.7387 39.3478 48.2826C38.297 49.3333 36.9002 49.9112 35.4168 49.9112C33.9304 49.9112 32.5366 49.3302 31.4859 48.2826C31.214 48.0107 30.8555 47.8623 30.4723 47.8623C30.0891 47.8623 29.7275 48.0138 29.4556 48.2826L28 46.8271Z" fill="white"></path><path d="M73.2402 35.2216C74.6062 33.8557 76.8219 33.8557 78.1848 35.2216C79.5507 36.5875 81.7634 36.5875 83.1293 35.2216C84.4922 33.8557 86.708 33.8557 88.0739 35.2216C89.4367 36.5875 91.6525 36.5875 93.0184 35.2216C94.3813 33.8557 96.5971 33.8557 97.963 35.2216L96.5044 36.6771C95.9635 36.1363 95.0179 36.1363 94.4771 36.6771C93.4264 37.7279 92.0295 38.3058 90.5462 38.3058C89.0597 38.3058 87.666 37.7279 86.6153 36.6771C86.0744 36.1363 85.1288 36.1332 84.588 36.6771C83.5373 37.7279 82.1404 38.3058 80.6571 38.3058C79.1706 38.3058 77.7769 37.7279 76.7261 36.6771C76.4542 36.4052 76.0957 36.2569 75.7125 36.2569C75.3293 36.2569 74.9677 36.4083 74.6958 36.6771L73.2402 35.2216Z" fill="white"></path><path d="M56.1639 42.0426C56.2874 47.1197 60.3344 51.2103 65.2922 51.2103C67.8745 51.2103 69.9731 49.0447 69.9731 46.3875C69.9731 43.7304 67.8712 41.5648 65.2922 41.5648H63.0669C58.9031 41.5648 55.5167 38.0758 55.5167 33.7858V32.4005H53.0578C51.3463 32.4005 49.955 30.9671 49.955 29.2037C49.955 27.4403 51.3463 26 53.0578 26H76.1787V27.8115H53.0578C52.3171 27.8115 51.7133 28.4337 51.7133 29.1968C51.7133 29.9599 52.3171 30.5821 53.0578 30.5821H65.2922C71.2943 30.5821 76.1787 35.6146 76.1787 41.802C76.1787 47.9894 71.2943 53.0184 65.2922 53.0184H60.8448C54.9195 53.0184 50.0851 48.1166 49.9583 42.0426H56.1639ZM64.4114 39.5092V32.3937H57.2716V33.779C57.2716 37.072 59.8706 39.7498 63.0669 39.7498H64.4114V39.5092ZM73.0459 36.8452C71.5812 34.4183 69.169 32.8268 66.4299 32.4727L66.1663 32.4383V39.8117L66.3598 39.8461C67.284 40.0076 68.1715 40.3926 68.9955 40.9942L69.1557 41.111L69.2958 40.9667L73.0092 37.1373L73.1393 37.0033L73.0425 36.8417L73.0459 36.8452ZM70.5169 42.5582C71.3076 43.7029 71.728 45.0229 71.728 46.3806C71.728 46.9169 71.658 47.4738 71.5178 48.0306L71.2943 48.9312L71.9149 48.2575C73.5296 46.4975 74.4205 44.2047 74.4205 41.7985C74.4205 40.9014 74.2937 40.0042 74.0468 39.1414L73.9367 38.7529L73.6598 39.0383L70.5436 42.2488L70.4035 42.3932L70.5169 42.5582ZM57.9989 50.7359L59.12 51.114L58.2225 50.3234C56.3875 48.7078 55.1097 46.4769 54.6292 44.0397L54.5925 43.8472H51.9501L52.0269 44.1497C52.8143 47.2778 55.0463 49.739 58.0023 50.7359H57.9989Z" fill="#0F3063"></path><path d="M60.8413 35.8311C60.3567 35.8311 59.9638 35.4264 59.9638 34.9271C59.9638 34.4278 60.3567 34.023 60.8413 34.023C61.3259 34.023 61.7188 34.4278 61.7188 34.9271C61.7188 35.4264 61.3259 35.8311 60.8413 35.8311Z" fill="#0F3063"></path></svg>